# Made in Blockbench 4.7.4
mtllib Magelight.mtl

o sphere
v 0 0.125 0
v 0 1.125 0
v 0.09549150281252627 1.0295084971874737 0.2938926261462365
v 0.15450849718747367 0.7795084971874737 0.4755282581475767
v 0.1545084971874737 0.4704915028125263 0.47552825814757677
v 0.09549150281252629 0.22049150281252633 0.29389262614623657
v 0.24999999999999997 1.0295084971874737 0.1816356320013402
v 0.40450849718747367 0.7795084971874737 0.2938926261462365
v 0.4045084971874737 0.4704915028125263 0.29389262614623657
v 0.25000000000000006 0.22049150281252633 0.18163563200134025
v 0.3090169943749474 1.0295084971874737 1.892183365217075e-17
v 0.49999999999999994 0.7795084971874737 3.0616169978683824e-17
v 0.5 0.4704915028125263 3.061616997868383e-17
v 0.30901699437494745 0.22049150281252633 1.8921833652170753e-17
v 0.24999999999999997 1.0295084971874737 -0.18163563200134017
v 0.40450849718747367 0.7795084971874737 -0.29389262614623646
v 0.4045084971874737 0.4704915028125263 -0.2938926261462365
v 0.25000000000000006 0.22049150281252633 -0.1816356320013402
v 0.0954915028125263 1.0295084971874737 -0.2938926261462365
v 0.15450849718747373 0.7795084971874737 -0.4755282581475767
v 0.15450849718747375 0.4704915028125263 -0.47552825814757677
v 0.09549150281252632 0.22049150281252633 -0.29389262614623657
v -0.09549150281252637 1.0295084971874737 -0.2938926261462365
v -0.15450849718747384 0.7795084971874737 -0.4755282581475767
v -0.15450849718747386 0.4704915028125263 -0.47552825814757677
v -0.09549150281252639 0.22049150281252633 -0.29389262614623657
v -0.24999999999999994 1.0295084971874737 -0.18163563200134025
v -0.4045084971874736 0.7795084971874737 -0.29389262614623657
v -0.40450849718747367 0.4704915028125263 -0.2938926261462366
v -0.25 0.22049150281252633 -0.18163563200134028
v -0.3090169943749474 1.0295084971874737 -5.676550095651224e-17
v -0.49999999999999994 0.7795084971874737 -9.184850993605147e-17
v -0.5 0.4704915028125263 -9.184850993605148e-17
v -0.30901699437494745 0.22049150281252633 -5.676550095651226e-17
v -0.25 1.0295084971874737 0.18163563200134014
v -0.4045084971874737 0.7795084971874737 0.2938926261462364
v -0.4045084971874738 0.4704915028125263 0.29389262614623646
v -0.25000000000000006 0.22049150281252633 0.18163563200134017
v -0.09549150281252636 1.0295084971874737 0.2938926261462365
v -0.1545084971874738 0.7795084971874737 0.4755282581475767
v -0.15450849718747384 0.4704915028125263 0.47552825814757677
v -0.09549150281252637 0.22049150281252633 0.29389262614623657
vt 0.046875 0.984375
vt 0.015625 0.984375
vt 0.015625 0.953125
vt 0.109375 0.984375
vt 0.078125 0.984375
vt 0.078125 0.953125
vt 0.109375 0.953125
vt 0.171875 0.984375
vt 0.140625 0.984375
vt 0.140625 0.953125
vt 0.171875 0.953125
vt 0.234375 0.984375
vt 0.203125 0.984375
vt 0.203125 0.953125
vt 0.234375 0.953125
vt 0.296875 0.984375
vt 0.265625 0.984375
vt 0.265625 0.953125
vt 0.359375 0.984375
vt 0.328125 0.984375
vt 0.328125 0.953125
vt 0.421875 0.984375
vt 0.390625 0.984375
vt 0.390625 0.953125
vt 0.421875 0.953125
vt 0.484375 0.984375
vt 0.453125 0.984375
vt 0.453125 0.953125
vt 0.484375 0.953125
vt 0.546875 0.984375
vt 0.515625 0.984375
vt 0.515625 0.953125
vt 0.546875 0.953125
vt 0.609375 0.984375
vt 0.578125 0.984375
vt 0.578125 0.953125
vt 0.671875 0.984375
vt 0.640625 0.984375
vt 0.640625 0.953125
vt 0.734375 0.984375
vt 0.703125 0.984375
vt 0.703125 0.953125
vt 0.734375 0.953125
vt 0.796875 0.984375
vt 0.765625 0.984375
vt 0.765625 0.953125
vt 0.796875 0.953125
vt 0.859375 0.984375
vt 0.828125 0.984375
vt 0.828125 0.953125
vt 0.859375 0.953125
vt 0.921875 0.984375
vt 0.890625 0.984375
vt 0.890625 0.953125
vt 0.984375 0.984375
vt 0.953125 0.984375
vt 0.953125 0.953125
vt 0.046875 0.921875
vt 0.015625 0.921875
vt 0.015625 0.890625
vt 0.046875 0.890625
vt 0.109375 0.921875
vt 0.078125 0.921875
vt 0.078125 0.890625
vt 0.109375 0.890625
vt 0.171875 0.921875
vt 0.140625 0.921875
vt 0.140625 0.890625
vt 0.171875 0.890625
vt 0.234375 0.921875
vt 0.203125 0.921875
vt 0.203125 0.890625
vt 0.296875 0.921875
vt 0.265625 0.921875
vt 0.265625 0.890625
vt 0.359375 0.921875
vt 0.328125 0.921875
vt 0.328125 0.890625
vt 0.359375 0.890625
vt 0.421875 0.921875
vt 0.390625 0.921875
vt 0.390625 0.890625
vt 0.421875 0.890625
vt 0.484375 0.921875
vt 0.453125 0.921875
vt 0.453125 0.890625
vt 0.484375 0.890625
vt 0.546875 0.921875
vt 0.515625 0.921875
vt 0.515625 0.890625
vt 0.609375 0.921875
vt 0.578125 0.921875
vt 0.578125 0.890625
vt 0.671875 0.921875
vt 0.640625 0.921875
vt 0.640625 0.890625
vt 0.671875 0.890625
vt 0.734375 0.921875
vt 0.703125 0.921875
vt 0.703125 0.890625
vt 0.734375 0.890625
vt 0.796875 0.921875
vt 0.765625 0.921875
vt 0.765625 0.890625
vt 0.796875 0.890625
vt 0.859375 0.921875
vt 0.828125 0.921875
vt 0.828125 0.890625
vt 0.921875 0.921875
vt 0.890625 0.921875
vt 0.890625 0.890625
vt 0.984375 0.921875
vt 0.953125 0.921875
vt 0.953125 0.890625
vt 0.984375 0.890625
vt 0.046875 0.859375
vt 0.015625 0.859375
vt 0.015625 0.828125
vt 0.046875 0.828125
vt 0.109375 0.859375
vt 0.078125 0.859375
vt 0.078125 0.828125
vt 0.109375 0.828125
vt 0.171875 0.859375
vt 0.140625 0.859375
vt 0.140625 0.828125
vt 0.234375 0.859375
vt 0.203125 0.859375
vt 0.203125 0.828125
vt 0.296875 0.859375
vt 0.265625 0.859375
vt 0.265625 0.828125
vt 0.296875 0.828125
vt 0.359375 0.859375
vt 0.328125 0.859375
vt 0.328125 0.828125
vt 0.359375 0.828125
vt 0.421875 0.859375
vt 0.390625 0.859375
vt 0.390625 0.828125
vt 0.421875 0.828125
vt 0.484375 0.859375
vt 0.453125 0.859375
vt 0.453125 0.828125
vt 0.546875 0.859375
vt 0.515625 0.859375
vt 0.515625 0.828125
vt 0.609375 0.859375
vt 0.578125 0.859375
vt 0.578125 0.828125
vt 0.609375 0.828125
vt 0.671875 0.859375
vt 0.640625 0.859375
vt 0.640625 0.828125
vt 0.671875 0.828125
vt 0.734375 0.859375
vt 0.703125 0.859375
vt 0.703125 0.828125
vt 0.734375 0.828125
vt 0.796875 0.859375
vt 0.765625 0.859375
vt 0.765625 0.828125
vt 0.859375 0.859375
vt 0.828125 0.859375
vt 0.828125 0.828125
vt 0.921875 0.859375
vt 0.890625 0.859375
vt 0.890625 0.828125
vt 0.921875 0.828125
vt 0.984375 0.859375
vt 0.953125 0.859375
vt 0.953125 0.828125
vt 0.984375 0.828125
vt 0.046875 0.796875
vt 0.015625 0.796875
vt 0.015625 0.765625
vt 0.046875 0.765625
vt 0.109375 0.796875
vt 0.078125 0.796875
vt 0.078125 0.765625
vn 0.18163563200134022 0.9510565162951538 0.25000000000000006
vn 0.47552825814757677 0.587785252292473 0.6545084971874738
vn 0.5877852522924731 1.9812432278360212e-16 0.8090169943749477
vn 0.4755282581475766 -0.5877852522924732 0.6545084971874738
vn 0.18163563200134022 -0.9510565162951536 0.25000000000000017
vn 0.2938926261462366 0.9510565162951538 0.09549150281252633
vn 0.7694208842938134 0.5877852522924731 0.25000000000000006
vn 0.9510565162951538 2.2635690750534587e-16 0.3090169943749475
vn 0.7694208842938135 -0.587785252292473 0.24999999999999992
vn 0.2938926261462367 -0.9510565162951536 0.09549150281252627
vn 0.29389262614623657 0.9510565162951538 -0.09549150281252632
vn 0.7694208842938134 0.5877852522924731 -0.25000000000000006
vn 0.9510565162951536 1.70845756274088e-16 -0.3090169943749474
vn 0.7694208842938134 -0.5877852522924731 -0.24999999999999992
vn 0.29389262614623674 -0.9510565162951536 -0.0954915028125263
vn 0.18163563200134028 0.9510565162951538 -0.25000000000000006
vn 0.475528258147577 0.587785252292473 -0.6545084971874736
vn 0.5877852522924734 2.5091856488913556e-16 -0.8090169943749475
vn 0.47552825814757693 -0.5877852522924731 -0.6545084971874737
vn 0.18163563200134034 -0.9510565162951538 -0.2500000000000001
vn 0 0.9510565162951536 -0.3090169943749474
vn 0 0.5877852522924731 -0.8090169943749477
vn 0 1.7963785889362143e-16 -1
vn 0 -0.5877852522924732 -0.8090169943749476
vn 0 -0.9510565162951535 -0.3090169943749475
vn -0.18163563200134025 0.9510565162951538 -0.25
vn -0.47552825814757693 0.5877852522924731 -0.6545084971874736
vn -0.5877852522924734 1.9812432278360204e-16 -0.8090169943749473
vn -0.47552825814757677 -0.5877852522924734 -0.6545084971874737
vn -0.18163563200134034 -0.9510565162951538 -0.2500000000000001
vn -0.29389262614623657 0.9510565162951538 -0.09549150281252636
vn -0.7694208842938135 0.5877852522924731 -0.2500000000000002
vn -0.9510565162951536 2.2635690750534587e-16 -0.3090169943749477
vn -0.7694208842938134 -0.5877852522924731 -0.25000000000000017
vn -0.2938926261462367 -0.9510565162951536 -0.09549150281252636
vn -0.29389262614623657 0.9510565162951538 0.09549150281252627
vn -0.7694208842938135 0.5877852522924731 0.24999999999999992
vn -0.9510565162951536 1.70845756274088e-16 0.3090169943749472
vn -0.7694208842938134 -0.5877852522924731 0.24999999999999992
vn -0.29389262614623674 -0.9510565162951536 0.0954915028125263
vn -0.1816356320013403 0.9510565162951538 0.24999999999999997
vn -0.4755282581475771 0.587785252292473 0.6545084971874736
vn -0.5877852522924734 2.509185648891355e-16 0.8090169943749472
vn -0.475528258147577 -0.5877852522924731 0.6545084971874735
vn -0.1816356320013404 -0.9510565162951536 0.2500000000000001
vn 0 0.9510565162951536 0.30901699437494745
vn 0 0.5877852522924731 0.8090169943749475
vn 0 1.7963785889362148e-16 1
vn 0 -0.5877852522924732 0.8090169943749475
vn 0 -0.9510565162951535 0.3090169943749475
usemtl m_9a1fec88-f784-44d2-5eec-08a70d38e133
f 3/1/1 7/2/1 2/3/1
f 3/4/2 4/5/2 8/6/2 7/7/2
f 4/8/3 5/9/3 9/10/3 8/11/3
f 5/12/4 6/13/4 10/14/4 9/15/4
f 10/16/5 6/17/5 1/18/5
f 7/19/6 11/20/6 2/21/6
f 7/22/7 8/23/7 12/24/7 11/25/7
f 8/26/8 9/27/8 13/28/8 12/29/8
f 9/30/9 10/31/9 14/32/9 13/33/9
f 14/34/10 10/35/10 1/36/10
f 11/37/11 15/38/11 2/39/11
f 11/40/12 12/41/12 16/42/12 15/43/12
f 12/44/13 13/45/13 17/46/13 16/47/13
f 13/48/14 14/49/14 18/50/14 17/51/14
f 18/52/15 14/53/15 1/54/15
f 15/55/16 19/56/16 2/57/16
f 15/58/17 16/59/17 20/60/17 19/61/17
f 16/62/18 17/63/18 21/64/18 20/65/18
f 17/66/19 18/67/19 22/68/19 21/69/19
f 22/70/20 18/71/20 1/72/20
f 19/73/21 23/74/21 2/75/21
f 19/76/22 20/77/22 24/78/22 23/79/22
f 20/80/23 21/81/23 25/82/23 24/83/23
f 21/84/24 22/85/24 26/86/24 25/87/24
f 26/88/25 22/89/25 1/90/25
f 23/91/26 27/92/26 2/93/26
f 23/94/27 24/95/27 28/96/27 27/97/27
f 24/98/28 25/99/28 29/100/28 28/101/28
f 25/102/29 26/103/29 30/104/29 29/105/29
f 30/106/30 26/107/30 1/108/30
f 27/109/31 31/110/31 2/111/31
f 27/112/32 28/113/32 32/114/32 31/115/32
f 28/116/33 29/117/33 33/118/33 32/119/33
f 29/120/34 30/121/34 34/122/34 33/123/34
f 34/124/35 30/125/35 1/126/35
f 31/127/36 35/128/36 2/129/36
f 31/130/37 32/131/37 36/132/37 35/133/37
f 32/134/38 33/135/38 37/136/38 36/137/38
f 33/138/39 34/139/39 38/140/39 37/141/39
f 38/142/40 34/143/40 1/144/40
f 35/145/41 39/146/41 2/147/41
f 35/148/42 36/149/42 40/150/42 39/151/42
f 36/152/43 37/153/43 41/154/43 40/155/43
f 37/156/44 38/157/44 42/158/44 41/159/44
f 42/160/45 38/161/45 1/162/45
f 39/163/46 3/164/46 2/165/46
f 39/166/47 40/167/47 4/168/47 3/169/47
f 40/170/48 41/171/48 5/172/48 4/173/48
f 41/174/49 42/175/49 6/176/49 5/177/49
f 6/178/50 42/179/50 1/180/50